# xmcd CD database file
#
# Track frame offsets:
#	150
#	24157
#	43132
#	58220
#	83705
#	101282
#	126390
#	154890
#
# Disc length: 2332 seconds
#
# Revision: 0
# Processed by: cddbd v1.5.2PL0 Copyright (c) Steve Scherf et al.
# Submitted via: CDex 1.70beta2
#
DISCID=61091a08
DTITLE=Orquesta Inmensidad - El Retrato
DYEAR=1988
DGENRE=Salsa
TTITLE0=Vieras Cuantas Gonas Tengo
TTITLE1=El Retrato
TTITLE2=Vete Mujer
TTITLE3=Mentira
TTITLE4=Ay Que Amor
TTITLE5=Vive Tu Vida
TTITLE6=Hasta Que te Conoci
TTITLE7=Dejala Bailar
EXTD=YEAR: 1988
EXTT0=
EXTT1=
EXTT2=
EXTT3=
EXTT4=
EXTT5=
EXTT6=
EXTT7=
PLAYORDER=
